<svg xmlns="http://www.w3.org/2000/svg" viewBox="0 0 512 512">
  <rect width="512" height="512" fill="#ffffff" />
  <g transform="translate(-21, 77) scale(0.69)">
    <g transform="translate(200, 350)">
      <circle r="100" fill="none" stroke="#23222E" stroke-width="12" />
      <g stroke="#D3D5DE" stroke-width="1.5">
        <line x1="-94" y1="0" x2="94" y2="0" />
        <line x1="-94" y1="0" x2="94" y2="0" transform="rotate(22.5)" />
        <line x1="-94" y1="0" x2="94" y2="0" transform="rotate(45)" />
        <line x1="-94" y1="0" x2="94" y2="0" transform="rotate(67.5)" />
        <line x1="-94" y1="0" x2="94" y2="0" transform="rotate(90)" />
        <line x1="-94" y1="0" x2="94" y2="0" transform="rotate(112.5)" />
        <line x1="-94" y1="0" x2="94" y2="0" transform="rotate(135)" />
        <line x1="-94" y1="0" x2="94" y2="0" transform="rotate(157.5)" />
      </g>
      <circle r="94" fill="none" stroke="#D3D5DE" stroke-width="3" />
    </g>
    <g transform="translate(620, 350)">
      <circle r="100" fill="none" stroke="#23222E" stroke-width="12" />
      <g stroke="#D3D5DE" stroke-width="1.5">
        <line x1="-94" y1="0" x2="94" y2="0" />
        <line x1="-94" y1="0" x2="94" y2="0" transform="rotate(22.5)" />
        <line x1="-94" y1="0" x2="94" y2="0" transform="rotate(45)" />
        <line x1="-94" y1="0" x2="94" y2="0" transform="rotate(67.5)" />
        <line x1="-94" y1="0" x2="94" y2="0" transform="rotate(90)" />
        <line x1="-94" y1="0" x2="94" y2="0" transform="rotate(112.5)" />
        <line x1="-94" y1="0" x2="94" y2="0" transform="rotate(135)" />
        <line x1="-94" y1="0" x2="94" y2="0" transform="rotate(157.5)" />
      </g>
      <circle r="94" fill="none" stroke="#D3D5DE" stroke-width="3" />
    </g>

    <path d="M 515 350 A 108 108 0 0 1 650 250" fill="none" stroke="#23222E" stroke-width="14" stroke-linecap="round" />
    <path d="M 90 350 A 110 110 0 0 1 270 265 L 200 350 Z" fill="#2E5CB8" />
    <path d="M 85 295 A 16 16 0 0 0 85 325 L 98 310 Z" fill="#FF2A5F" />
    <line x1="200" y1="350" x2="360" y2="190" stroke="#2E5CB8" stroke-width="18" stroke-linecap="round" />
    <line x1="200" y1="350" x2="420" y2="350" stroke="#2E5CB8" stroke-width="26" stroke-linecap="round" />
    <line x1="200" y1="367" x2="420" y2="367" stroke="#23222E" stroke-width="4" />
    <path d="M 565 180 C 530 330, 480 350, 420 350" fill="none" stroke="#2E5CB8" stroke-width="34" stroke-linecap="round" />
    <line x1="420" y1="350" x2="360" y2="180" stroke="#2E5CB8" stroke-width="20" stroke-linecap="round" />
    <line x1="620" y1="350" x2="565" y2="180" stroke="#2E5CB8" stroke-width="16" stroke-linecap="round" />
    <line x1="565" y1="185" x2="585" y2="120" stroke="#2E5CB8" stroke-width="26" stroke-linecap="round" />
    <circle cx="420" cy="350" r="38" fill="#2E5CB8" />
    <circle cx="420" cy="350" r="16" fill="#D3D5DE" />
    <circle cx="200" cy="350" r="18" fill="#D3D5DE" />
    <circle cx="620" cy="350" r="14" fill="#D3D5DE" />
    <line x1="420" y1="350" x2="445" y2="420" stroke="#D3D5DE" stroke-width="10" stroke-linecap="round" />
    <rect x="430" y="416" width="30" height="8" fill="#23222E" rx="4" />
    <line x1="360" y1="180" x2="345" y2="135" stroke="#D3D5DE" stroke-width="12" stroke-linecap="round" />
    <path d="M 315 145 C 315 130, 340 135, 360 135 C 375 135, 390 145, 380 150 C 360 155, 320 155, 315 145 Z" fill="#23222E" />
    <polygon points="575,150 585,120 605,125 595,155" fill="#2E5CB8" />
    <line x1="585" y1="120" x2="595" y2="90" stroke="#23222E" stroke-width="14" stroke-linecap="round" />
    <path d="M 595 90 C 595 75, 585 70, 565 70" fill="none" stroke="#23222E" stroke-width="14" stroke-linecap="round" />
    <line x1="565" y1="70" x2="535" y2="70" stroke="#23222E" stroke-width="22" stroke-linecap="round" />
    <polygon points="605,135 655,135 665,85 595,85" fill="#2E5CB8" />
    <line x1="592" y1="85" x2="668" y2="85" stroke="#23222E" stroke-width="8" stroke-linecap="round" />
  </g>
</svg>
